<?xml version="1.0" encoding="UTF-8"?>
<svg id="Layer_1" data-name="Layer 1" xmlns="http://www.w3.org/2000/svg" xmlns:xlink="http://www.w3.org/1999/xlink" viewBox="0 0 542 146">
  <defs>
    <style>
      .cls-1 {
        fill: #fff;
      }

      .cls-2 {
        fill: url(#linear-gradient);
      }
    </style>
    <linearGradient id="linear-gradient" x1="68.23" y1="137" x2="68.23" y2="16.65" gradientUnits="userSpaceOnUse">
      <stop offset="0" stop-color="#dd1845"/>
      <stop offset="1" stop-color="#e54226"/>
    </linearGradient>
  </defs>
  <path class="cls-2" d="M123.77,65.59l-10.19-10.19-10.55,10.55,8.76,8.76-33.65,33.66V41.06l13.79,13.79,10.55-10.55-23.01-23.01c-6.18-6.18-16.29-6.18-22.47,0l-23.55,23.55,10.56,10.55,14.33-14.32V108.37L24.68,74.71l7.91-7.91-10.55-10.55-9.34,9.34c-6.18,6.18-6.18,16.29,0,22.47l44.31,44.31c6.18,6.18,16.29,6.18,22.47,0l44.3-44.3c6.18-6.18,6.18-16.29,0-22.47Z"/>
  <g>
    <g>
      <path class="cls-1" d="M185.13,20.95h8.24l9.83,43.87,7.66-38.06c.9-4.46,3.05-6.69,6.45-6.69s5.63,2.23,6.53,6.7l7.58,38.04,9.91-43.86h8.24l-11.31,50.5c-.64,2.76-2.05,4.57-4.22,5.42-.96,.37-1.94,.56-2.95,.56-3.4,0-5.5-1.99-6.3-5.97l-7.48-37.56-7.48,37.56c-.8,3.98-2.92,5.97-6.37,5.97-.9,0-1.86-.19-2.87-.56-2.13-.8-3.51-2.6-4.14-5.42l-11.31-50.5Z"/>
      <path class="cls-1" d="M255.07,65.71v-18.72c0-8.07,4.33-12.11,12.98-12.11h10.36c3.4,0,6.08,.94,8.04,2.83,1.96,1.89,2.95,4.5,2.95,7.85v4.94l-27.4,12.74v1.83c.32,1.81,.75,3,1.28,3.59,.64,.75,1.81,1.12,3.51,1.12h23.09v6.93h-23.42c-3.29,0-6.01-1.01-8.17-3.03-2.15-2.02-3.23-4.67-3.23-7.96Zm6.93-10.12l20.39-9.48v-.65c0-2.43-1.41-3.65-4.24-3.65h-11.44c-3.15,0-4.72,1.76-4.72,5.29v8.49Z"/>
      <path class="cls-1" d="M298.24,64.92V20.95h6.93v13.94h16.22c6.44,0,10.17,2.87,11.18,8.6,.16,.9,.24,1.54,.24,1.91v20.39c0,4.73-2.1,8.02-6.29,9.88-1.54,.69-2.92,1.04-4.14,1.04h-13.7c-2.97,0-5.47-1.25-7.49-3.74-1.97-2.34-2.95-5.02-2.95-8.04Zm11.5,4.86h12.28c.37,0,.62-.03,.72-.08,1.66-.37,2.67-1.68,3.05-3.91,0-.05,.03-.13,.08-.24v-19.09c0-3.09-1.55-4.63-4.66-4.63h-12.28c-2.52,0-3.77,1.49-3.77,4.47v18.45c0,1.38,.43,2.57,1.28,3.56,.86,.99,1.95,1.48,3.29,1.48Z"/>
      <path class="cls-1" d="M341.42,32.98c0-.9,.11-1.88,.32-2.95,.69-3.29,2.07-5.66,4.13-7.09,1.91-1.33,4.61-1.99,8.11-1.99h14.15c8.32,0,12.48,4.01,12.48,12.03v31.7c0,8.02-4.2,12.03-12.59,12.03h-14.1c-3.66,0-6.4-.62-8.21-1.84-2.02-1.44-3.35-3.87-3.98-7.3-.21-1.17-.32-2.14-.32-2.89v-31.7Zm11.95,27.88c0,2.55,1.33,3.82,3.98,3.82h7.33c1.43,0,2.46-.22,3.07-.68,.61-.45,.92-1.37,.92-2.75v-24.45c0-1.43-.3-2.43-.89-2.99-.59-.56-1.64-.84-3.14-.84h-7.41c-1.5,0-2.52,.27-3.06,.8-.54,.53-.8,1.54-.8,3.03v24.06Z"/>
      <path class="cls-1" d="M387.86,65.87v-21.11c0-6.58,2.95-9.88,8.84-9.88h19.28v10.67h-14.34c-1.86,0-2.92,.58-3.19,1.74v15.81c0,.69,.19,1.24,.56,1.66,.48,.84,1.27,1.26,2.39,1.26h14.58v10.67h-17.05c-7.38,0-11.07-3.61-11.07-10.83Z"/>
      <path class="cls-1" d="M422.11,65.87v-21.11c0-6.58,2.95-9.88,8.84-9.88h19.28v10.67h-14.34c-1.86,0-2.92,.58-3.19,1.74v15.81c0,.69,.19,1.24,.56,1.66,.48,.84,1.27,1.26,2.39,1.26h14.58v10.67h-17.05c-7.38,0-11.07-3.61-11.07-10.83Z"/>
      <path class="cls-1" d="M456.36,66.75v-31.86h10.59v28.84c.21,1.54,1.35,2.3,3.42,2.3h6.53c2.07,0,3.21-.77,3.42-2.3,.05-.16,.08-.37,.08-.64v-28.21h10.59v31.86c0,.53-.05,1.17-.16,1.91-.8,5.36-4.06,8.04-9.8,8.04h-14.74c-5.74,0-9-2.68-9.8-8.04-.11-.74-.16-1.38-.16-1.91Z"/>
      <path class="cls-1" d="M498.34,76.71V19.28h10.59v57.43h-10.59Z"/>
      <path class="cls-1" d="M516.26,76.71V19.28h10.59v15.61h7.09v10.67h-7.09v31.15h-10.59Z"/>
    </g>
    <rect class="cls-1" x="150.82" y="18.71" width="2.89" height="109.77"/>
    <g>
      <polygon class="cls-1" points="214.57 102.79 214.57 105.94 207.19 105.94 207.19 127.43 203.54 127.43 203.54 105.94 196.2 105.94 196.2 102.79 214.57 102.79"/>
      <polygon class="cls-1" points="239.78 124.32 239.78 127.43 225.71 127.43 225.71 102.79 239.25 102.79 239.25 105.91 229.32 105.91 229.32 113.04 238.71 113.04 238.71 116.12 229.32 116.12 229.32 124.32 239.78 124.32"/>
      <path class="cls-1" d="M268.92,123.56l.77,2.97-.18,.09c-1.13,.57-3.43,1.17-6.48,1.17-7.4,0-12.18-4.89-12.18-12.46s5.17-12.93,12.86-12.93c3.46,0,5.35,.84,5.84,1.1l.18,.1-.89,3.02-.27-.13c-1.3-.63-2.99-.98-4.76-.98-5.65,0-9.17,3.72-9.17,9.71s3.38,9.46,9.03,9.46c1.83,0,3.74-.38,4.98-.98l.27-.14Z"/>
      <polygon class="cls-1" points="300.45 102.79 300.45 127.43 296.8 127.43 296.8 116.12 285.62 116.12 285.62 127.43 282.01 127.43 282.01 102.79 285.62 102.79 285.62 112.89 296.8 112.89 296.8 102.79 300.45 102.79"/>
      <path class="cls-1" d="M332.93,102.79v24.64h-3.54l-7.73-12.36c-1.77-2.82-3.09-5.14-4.11-7.21,.14,2.69,.2,5.38,.2,9.01v10.56h-3.44v-24.64h3.79l.07,.12,7.74,12.21c1.52,2.4,2.78,4.65,3.85,6.83-.22-2.91-.26-5.66-.26-8.81v-10.35h3.43Z"/>
      <path class="cls-1" d="M356.86,102.4c-6.75,0-11.46,5.32-11.46,12.93s4.56,12.5,11.1,12.5c5.7,0,11.46-4.01,11.46-12.97,0-7.45-4.46-12.46-11.1-12.46Zm-.15,3.04c5.12,0,7.45,4.96,7.45,9.57,0,4.86-2.31,9.77-7.48,9.77s-7.45-4.93-7.45-9.52c0-4.89,2.31-9.82,7.48-9.82Z"/>
      <polygon class="cls-1" points="394.39 124.32 394.39 127.43 380.46 127.43 380.46 102.79 384.07 102.79 384.07 124.32 394.39 124.32"/>
      <path class="cls-1" d="M414.95,102.4c-6.75,0-11.46,5.32-11.46,12.93s4.56,12.5,11.1,12.5c5.7,0,11.46-4.01,11.46-12.97,0-7.45-4.46-12.46-11.1-12.46Zm-.15,3.04c5.12,0,7.45,4.96,7.45,9.57,0,4.86-2.31,9.77-7.48,9.77s-7.45-4.93-7.45-9.52c0-4.89,2.31-9.82,7.48-9.82Z"/>
      <path class="cls-1" d="M457.42,114.25v12.03l-.17,.06c-1.7,.62-4.38,1.34-7.49,1.34-3.9,0-6.9-1.06-9.2-3.25-2.19-2.12-3.44-5.46-3.44-9.17,.03-7.61,5.39-12.72,13.32-12.72,2.78,0,5.04,.61,6.12,1.14l.19,.09-.89,3.02-.26-.12c-1.07-.47-2.62-1.01-5.23-1.01-5.84,0-9.46,3.62-9.46,9.45s3.47,9.5,9.06,9.5c2.28,0,3.43-.35,3.91-.56v-6.79h-4.91v-3.01h8.45Z"/>
      <rect class="cls-1" x="470.64" y="102.79" width="3.61" height="24.64"/>
      <polygon class="cls-1" points="502.22 124.32 502.22 127.43 488.15 127.43 488.15 102.79 501.69 102.79 501.69 105.91 491.76 105.91 491.76 113.04 501.15 113.04 501.15 116.12 491.76 116.12 491.76 124.32 502.22 124.32"/>
      <path class="cls-1" d="M528.62,120.59c0,3.32-2.28,7.2-8.7,7.2-2.28,0-4.93-.66-6.3-1.58l-.16-.1,.94-3.11,.27,.17c1.57,.97,3.61,1.54,5.46,1.54,2.96,0,4.8-1.48,4.8-3.87,0-2.09-1.19-3.33-4.39-4.56-4.46-1.58-6.53-3.83-6.53-7.08,0-4,3.31-6.8,8.05-6.8,2.89,0,4.66,.76,5.46,1.21l.18,.11-1.02,3.02-.26-.15c-.93-.51-2.46-1.11-4.46-1.11-2.97,0-4.3,1.69-4.3,3.37,0,1.98,1.13,3.06,4.64,4.42,4.49,1.73,6.32,3.85,6.32,7.32Z"/>
    </g>
  </g>
</svg>