<?xml version="1.0" encoding="UTF-8"?>
<svg id="Layer_1" data-name="Layer 1" xmlns="http://www.w3.org/2000/svg" xmlns:xlink="http://www.w3.org/1999/xlink" viewBox="0 0 542 146">
  <defs>
    <style>
      .cls-1 {
        stroke: #333;
        stroke-miterlimit: 10;
        stroke-width: .5px;
      }

      .cls-1, .cls-2 {
        fill: #333;
      }

      .cls-3 {
        fill: url(#linear-gradient);
      }
    </style>
    <linearGradient id="linear-gradient" x1="68.07" y1="137" x2="68.07" y2="16.65" gradientUnits="userSpaceOnUse">
      <stop offset="0" stop-color="#dd1845"/>
      <stop offset="1" stop-color="#e54226"/>
    </linearGradient>
  </defs>
  <path class="cls-3" d="M123.61,65.59l-10.19-10.19-10.55,10.55,8.76,8.76-33.65,33.66V41.06l13.79,13.79,10.55-10.55-23.01-23.01c-6.18-6.18-16.29-6.18-22.47,0l-23.55,23.55,10.56,10.55,14.33-14.32V108.37L24.52,74.71l7.91-7.91-10.55-10.55-9.34,9.34c-6.18,6.18-6.18,16.29,0,22.47l44.31,44.31c6.18,6.18,16.29,6.18,22.47,0l44.3-44.3c6.18-6.18,6.18-16.29,0-22.47Z"/>
  <g>
    <path class="cls-2" d="M184.97,20.95h8.24l9.83,43.87,7.66-38.06c.9-4.46,3.05-6.69,6.45-6.69s5.63,2.23,6.53,6.7l7.58,38.04,9.91-43.86h8.24l-11.31,50.5c-.64,2.76-2.05,4.57-4.22,5.42-.96,.37-1.94,.56-2.95,.56-3.4,0-5.5-1.99-6.3-5.97l-7.48-37.56-7.48,37.56c-.8,3.98-2.92,5.97-6.37,5.97-.9,0-1.86-.19-2.87-.56-2.13-.8-3.51-2.6-4.14-5.42l-11.31-50.5Z"/>
    <path class="cls-2" d="M254.91,65.71v-18.72c0-8.07,4.33-12.11,12.98-12.11h10.36c3.4,0,6.08,.94,8.04,2.83,1.96,1.89,2.95,4.5,2.95,7.85v4.94l-27.4,12.74v1.83c.32,1.81,.75,3,1.28,3.59,.64,.75,1.81,1.12,3.51,1.12h23.09v6.93h-23.42c-3.29,0-6.01-1.01-8.17-3.03-2.15-2.02-3.23-4.67-3.23-7.96Zm6.93-10.12l20.39-9.48v-.65c0-2.43-1.41-3.65-4.24-3.65h-11.44c-3.15,0-4.72,1.76-4.72,5.29v8.49Z"/>
    <path class="cls-2" d="M298.08,64.92V20.95h6.93v13.94h16.22c6.44,0,10.17,2.87,11.18,8.6,.16,.9,.24,1.54,.24,1.91v20.39c0,4.73-2.1,8.02-6.29,9.88-1.54,.69-2.92,1.04-4.14,1.04h-13.7c-2.97,0-5.47-1.25-7.49-3.74-1.97-2.34-2.95-5.02-2.95-8.04Zm11.5,4.86h12.28c.37,0,.62-.03,.72-.08,1.66-.37,2.67-1.68,3.05-3.91,0-.05,.03-.13,.08-.24v-19.09c0-3.09-1.55-4.63-4.66-4.63h-12.28c-2.52,0-3.77,1.49-3.77,4.47v18.45c0,1.38,.43,2.57,1.28,3.56,.86,.99,1.95,1.48,3.29,1.48Z"/>
    <path class="cls-2" d="M341.26,32.98c0-.9,.11-1.88,.32-2.95,.69-3.29,2.07-5.66,4.13-7.09,1.91-1.33,4.61-1.99,8.11-1.99h14.15c8.32,0,12.48,4.01,12.48,12.03v31.7c0,8.02-4.2,12.03-12.59,12.03h-14.1c-3.66,0-6.4-.62-8.21-1.84-2.02-1.44-3.35-3.87-3.98-7.3-.21-1.17-.32-2.14-.32-2.89v-31.7Zm11.95,27.88c0,2.55,1.33,3.82,3.98,3.82h7.33c1.43,0,2.46-.22,3.07-.68,.61-.45,.92-1.37,.92-2.75v-24.45c0-1.43-.3-2.43-.89-2.99-.59-.56-1.64-.84-3.14-.84h-7.41c-1.5,0-2.52,.27-3.06,.8-.54,.53-.8,1.54-.8,3.03v24.06Z"/>
    <path class="cls-2" d="M387.7,65.87v-21.11c0-6.58,2.95-9.88,8.84-9.88h19.28v10.67h-14.34c-1.86,0-2.92,.58-3.19,1.74v15.81c0,.69,.19,1.24,.56,1.66,.48,.84,1.27,1.26,2.39,1.26h14.58v10.67h-17.05c-7.38,0-11.07-3.61-11.07-10.83Z"/>
    <path class="cls-2" d="M421.95,65.87v-21.11c0-6.58,2.95-9.88,8.84-9.88h19.28v10.67h-14.34c-1.86,0-2.92,.58-3.19,1.74v15.81c0,.69,.19,1.24,.56,1.66,.48,.84,1.27,1.26,2.39,1.26h14.58v10.67h-17.05c-7.38,0-11.07-3.61-11.07-10.83Z"/>
    <path class="cls-2" d="M456.2,66.75v-31.86h10.59v28.84c.21,1.54,1.35,2.3,3.42,2.3h6.53c2.07,0,3.21-.77,3.42-2.3,.05-.16,.08-.37,.08-.64v-28.21h10.59v31.86c0,.53-.05,1.17-.16,1.91-.8,5.36-4.06,8.04-9.8,8.04h-14.74c-5.74,0-9-2.68-9.8-8.04-.11-.74-.16-1.38-.16-1.91Z"/>
    <path class="cls-2" d="M498.18,76.71V19.28h10.59v57.43h-10.59Z"/>
    <path class="cls-2" d="M516.1,76.71V19.28h10.59v15.61h7.09v10.67h-7.09v31.15h-10.59Z"/>
  </g>
  <rect class="cls-2" x="150.66" y="18.71" width="2.89" height="109.77"/>
  <g>
    <path class="cls-1" d="M203.63,105.69h-7.34v-2.65h17.87v2.65h-7.38v21.49h-3.15v-21.49Z"/>
    <path class="cls-1" d="M238.3,115.87h-9.38v8.7h10.46v2.61h-13.57v-24.14h13.04v2.61h-9.92v7.63h9.38v2.58Z"/>
    <path class="cls-1" d="M269.24,126.39c-1.15,.57-3.44,1.15-6.37,1.15-6.8,0-11.93-4.3-11.93-12.21s5.12-12.68,12.61-12.68c3.01,0,4.91,.64,5.73,1.07l-.75,2.54c-1.18-.57-2.87-1-4.87-1-5.66,0-9.42,3.62-9.42,9.96,0,5.91,3.4,9.71,9.28,9.71,1.9,0,3.83-.39,5.09-1l.64,2.47Z"/>
    <path class="cls-1" d="M285.21,103.04v10.1h11.68v-10.1h3.15v24.14h-3.15v-11.32h-11.68v11.32h-3.12v-24.14h3.12Z"/>
    <path class="cls-1" d="M314.4,127.18v-24.14h3.4l7.74,12.21c1.79,2.83,3.19,5.37,4.33,7.84l.07-.04c-.29-3.22-.36-6.16-.36-9.92v-10.1h2.94v24.14h-3.15l-7.66-12.25c-1.68-2.69-3.29-5.44-4.51-8.06l-.11,.04c.18,3.04,.25,5.95,.25,9.96v10.31h-2.94Z"/>
    <path class="cls-1" d="M367.55,114.86c0,8.31-5.05,12.71-11.21,12.71s-10.85-4.94-10.85-12.25c0-7.66,4.76-12.68,11.21-12.68s10.85,5.05,10.85,12.21Zm-18.73,.39c0,5.16,2.79,9.78,7.7,9.78s7.74-4.55,7.74-10.03c0-4.8-2.51-9.81-7.7-9.81s-7.74,4.76-7.74,10.06Z"/>
    <path class="cls-1" d="M380.55,103.04h3.12v21.52h10.31v2.61h-13.43v-24.14Z"/>
    <path class="cls-1" d="M425.64,114.86c0,8.31-5.05,12.71-11.21,12.71s-10.85-4.94-10.85-12.25c0-7.66,4.76-12.68,11.21-12.68s10.85,5.05,10.85,12.21Zm-18.73,.39c0,5.16,2.79,9.78,7.7,9.78s7.74-4.55,7.74-10.03c0-4.8-2.51-9.81-7.7-9.81s-7.74,4.76-7.74,10.06Z"/>
    <path class="cls-1" d="M457.01,126.11c-1.4,.5-4.15,1.33-7.41,1.33-3.65,0-6.66-.93-9.03-3.19-2.08-2.01-3.37-5.23-3.37-8.99,.04-7.2,4.98-12.46,13.07-12.46,2.79,0,4.98,.61,6.02,1.11l-.75,2.54c-1.29-.57-2.9-1.04-5.34-1.04-5.87,0-9.71,3.65-9.71,9.71s3.69,9.74,9.31,9.74c2.04,0,3.44-.29,4.15-.65v-7.2h-4.91v-2.51h7.95v11.6Z"/>
    <path class="cls-1" d="M473.84,103.04v24.14h-3.12v-24.14h3.12Z"/>
    <path class="cls-1" d="M500.74,115.87h-9.38v8.7h10.46v2.61h-13.57v-24.14h13.04v2.61h-9.92v7.63h9.38v2.58Z"/>
    <path class="cls-1" d="M514.38,123.39c1.4,.86,3.44,1.58,5.59,1.58,3.19,0,5.05-1.68,5.05-4.12,0-2.26-1.29-3.55-4.55-4.8-3.94-1.4-6.37-3.44-6.37-6.84,0-3.76,3.12-6.55,7.81-6.55,2.47,0,4.26,.57,5.34,1.18l-.86,2.54c-.79-.43-2.4-1.15-4.58-1.15-3.3,0-4.55,1.97-4.55,3.62,0,2.26,1.47,3.37,4.8,4.66,4.08,1.58,6.16,3.55,6.16,7.09,0,3.72-2.76,6.95-8.45,6.95-2.33,0-4.87-.68-6.16-1.54l.79-2.61Z"/>
  </g>
</svg>